<?xml version="1.0"?>
<svg width="24" height="24" xmlns="http://www.w3.org/2000/svg" xmlns:svg="http://www.w3.org/2000/svg">
 <title>C</title>

 <g class="layer">
  <title>Layer 1</title>
  <path d="m16.59,9.2s-0.35,-3.3 -3.62,-3.39c-3.28,-0.09 -4.96,2.47 -4.96,6.14c0,3.66 1.86,6.59 5.04,6.59c3.19,0 3.54,-3.66 3.54,-3.66l6.11,0.36s0.36,3.31 -2.2,5.84c-2.55,2.52 -5.69,2.94 -7.88,2.92c-2.19,-0.02 -5.22,0.03 -8.16,-2.97c-2.93,-3.01 -3.43,-5.93 -3.43,-8.8c0,-2.87 0.55,-6.67 4.05,-9.55c2.36,-1.96 4.77,-2.68 7.17,-2.68c10.05,0 10.72,9.26 10.72,9.26l-6.38,-0.06z" fill="#7f7f7f" id="svg_1"/>
 </g>
</svg>