<?xml version="1.0"?>
<svg width="24" height="24" xmlns="http://www.w3.org/2000/svg" xmlns:svg="http://www.w3.org/2000/svg">
 <title>C++</title>

 <g class="layer">
  <title>Layer 1</title>
  <path d="m22.39,6c-0.16,-0.29 -0.39,-0.54 -0.65,-0.69l-8.81,-5.09c-0.51,-0.29 -1.34,-0.29 -1.85,0l-8.82,5.09c-0.51,0.29 -0.92,1.01 -0.92,1.6l0,10.18c0,0.29 0.1,0.62 0.27,0.91c0.16,0.29 0.4,0.54 0.65,0.69l8.82,5.09c0.5,0.29 1.34,0.29 1.84,0l8.82,-5.09c0.25,-0.15 0.49,-0.4 0.65,-0.69c0.17,-0.29 0.27,-0.62 0.27,-0.91l0,-10.18c0.01,-0.29 -0.1,-0.62 -0.27,-0.91zm-10.39,13.11c-3.92,0 -7.11,-3.19 -7.11,-7.11c0,-3.92 3.19,-7.11 7.11,-7.11a7.13,7.13 0 0 1 6.16,3.55l-3.08,1.78a3.57,3.57 0 0 0 -3.08,-1.78a3.56,3.56 0 0 0 -3.56,3.56a3.56,3.56 0 0 0 3.56,3.55a3.57,3.57 0 0 0 3.08,-1.77l3.08,1.78a7.13,7.13 0 0 1 -6.16,3.55zm7.11,-6.72l-0.79,0l0,0.79l-0.79,0l0,-0.79l-0.79,0l0,-0.78l0.79,0l0,-0.79l0.79,0l0,0.79l0.79,0l0,0.78zm2.96,0l-0.79,0l0,0.79l-0.79,0l0,-0.79l-0.79,0l0,-0.78l0.79,0l0,-0.79l0.79,0l0,0.79l0.79,0l0,0.78z" fill="#7f7f7f" id="svg_1"/>
 </g>
</svg>