<?xml version="1.0"?>
<svg width="24" height="24" xmlns="http://www.w3.org/2000/svg" xmlns:svg="http://www.w3.org/2000/svg">
 <title>C#</title>

 <g class="layer">
  <title>Layer 1</title>
  <path d="m1.19,7.54l0,8.92c0,1.1 0.59,2.12 1.55,2.67l7.72,4.46a3.09,3.09 0 0 0 3.08,0l7.72,-4.46a3.09,3.09 0 0 0 1.55,-2.67l0,-8.92a3.08,3.08 0 0 0 -1.55,-2.67l-7.72,-4.46a3.09,3.09 0 0 0 -3.08,0l-7.72,4.46a3.08,3.08 0 0 0 -1.55,2.67zm5.41,2.92l0,3.08a0.77,0.77 0 0 0 0.77,0.78a0.77,0.77 0 0 0 0.77,-0.78a0.77,0.77 0 0 1 1.32,-0.54a0.78,0.78 0 0 1 0.22,0.54a2.31,2.31 0 1 1 -4.63,0l0,-3.08c0,-0.62 0.25,-1.21 0.68,-1.64a2.31,2.31 0 0 1 3.28,0c0.43,0.43 0.67,1.02 0.67,1.64a0.77,0.77 0 0 1 -0.22,0.54a0.77,0.77 0 0 1 -1.09,0a0.77,0.77 0 0 1 -0.23,-0.54a0.77,0.77 0 0 0 -0.77,-0.77a0.77,0.77 0 0 0 -0.77,0.77zm12.35,3.08a0.77,0.77 0 0 1 -0.77,0.78l-0.78,0l0,0.77a0.77,0.77 0 0 1 -1.54,0l0,-0.77l-1.54,0l0,0.77a0.77,0.77 0 0 1 -1.32,0.54a0.78,0.78 0 0 1 -0.23,-0.54l0,-0.77l-0.77,0a0.77,0.77 0 1 1 0,-1.55l0.77,0l0,-1.54l-0.77,0a0.77,0.77 0 1 1 0,-1.55l0.77,0l0,-0.77a0.77,0.77 0 0 1 1.32,-0.54a0.78,0.78 0 0 1 0.23,0.54l0,0.77l1.54,0l0,-0.77a0.77,0.77 0 0 1 1.54,0l0,0.77l0.78,0a0.77,0.77 0 0 1 0,1.55l-0.78,0l0,1.54l0.78,0a0.78,0.78 0 0 1 0.77,0.77zm-3.09,-2.31l-1.55,0l0,1.54l1.55,0l0,-1.54z" fill="#7f7f7f" id="svg_1"/>
 </g>
</svg>