<?xml version="1.0"?>
<svg width="24" height="24" xmlns="http://www.w3.org/2000/svg" xmlns:svg="http://www.w3.org/2000/svg">
 <title>.NET</title>

 <g class="layer">
  <title>Layer 1</title>
  <path d="m24,8.77l-2.47,0l0,7.57l-1.42,0l0,-7.57l-2.47,0l0,-1.24l6.36,0l0,1.24zm-6.85,7.57l-4.82,0l0,-8.81l4.63,0l0,1.24l-3.21,0l0,2.49l2.96,0l0,1.24l-2.96,0l0,2.6l3.4,0l0,1.24zm-6.71,0l-1.56,0l-4.1,-6.48a2.9,2.9 0 0 1 -0.26,-0.51l-0.03,0c0.03,0.19 0.04,0.6 0.04,1.21l0,5.78l-1.37,0l0,-8.81l1.66,0l3.96,6.32c0.17,0.26 0.28,0.44 0.32,0.54l0.03,0c-0.04,-0.23 -0.06,-0.63 -0.06,-1.18l0,-5.68l1.37,0l0,8.81zm-8.7,-0.7a0.87,0.83 0 0 1 -0.87,0.83a0.87,0.83 0 0 1 -0.87,-0.83a0.87,0.83 0 0 1 0.87,-0.83a0.87,0.83 0 0 1 0.87,0.83z" fill="#7f7f7f" id="svg_1"/>
 </g>
</svg>