<?xml version="1.0"?>
<svg width="24" height="24" xmlns="http://www.w3.org/2000/svg" xmlns:svg="http://www.w3.org/2000/svg">
 <title>JavaScript</title>

 <g class="layer">
  <title>Layer 1</title>
  <path d="m0,0l24,0l0,24l-24,0l0,-24zm22.03,18.28c-0.17,-1.1 -0.88,-2.02 -3,-2.88c-0.74,-0.34 -1.55,-0.58 -1.8,-1.14c-0.09,-0.33 -0.1,-0.51 -0.04,-0.7c0.15,-0.65 0.91,-0.84 1.51,-0.66c0.39,0.12 0.75,0.42 0.98,0.9c1.03,-0.68 1.03,-0.68 1.75,-1.13c-0.27,-0.42 -0.4,-0.6 -0.58,-0.78c-0.63,-0.7 -1.47,-1.06 -2.84,-1.03l-0.7,0.09c-0.68,0.16 -1.32,0.52 -1.71,1c-1.14,1.29 -0.81,3.54 0.57,4.47c1.36,1.02 3.36,1.25 3.61,2.21c0.24,1.17 -0.87,1.54 -1.96,1.41c-0.81,-0.18 -1.26,-0.59 -1.76,-1.34l-1.83,1.05c0.21,0.48 0.45,0.69 0.81,1.11c1.74,1.76 6.09,1.67 6.87,-1c0.03,-0.09 0.24,-0.71 0.08,-1.65l0.04,0.07zm-8.98,-7.25l-2.25,0c0,1.94 -0.01,3.86 -0.01,5.81c0,1.23 0.07,2.36 -0.13,2.71c-0.33,0.69 -1.18,0.6 -1.57,0.48c-0.4,-0.2 -0.6,-0.47 -0.83,-0.86c-0.06,-0.1 -0.11,-0.19 -0.13,-0.19l-1.82,1.12c0.3,0.63 0.75,1.17 1.32,1.52c0.86,0.51 2.01,0.67 3.21,0.4c0.78,-0.22 1.46,-0.69 1.81,-1.41c0.51,-0.93 0.4,-2.07 0.4,-3.34c0.01,-2.06 0,-4.11 0,-6.18l0,-0.06z" fill="#7f7f7f" id="svg_1"/>
 </g>
</svg>