<?xml version="1.0"?>
<svg width="502.632" height="502.632" xmlns="http://www.w3.org/2000/svg" xmlns:svg="http://www.w3.org/2000/svg" version="1.1" xml:space="preserve">

 <g class="layer">
  <title>Layer 1</title>
  <g id="svg_1">
   <g id="svg_2">
    <path d="m240.86,269.89c0,0 -28.02,-53.99 -26.98,-93.44c0.75,-28.19 64.32,-56.06 89.28,-96.53c24.91,-40.49 -3.11,-79.92 -3.11,-79.92s6.24,29.08 -10.37,59.15c-16.61,30.11 -77.92,47.78 -101.75,99.68s52.93,111.06 52.93,111.06z" fill="#7f7f7f" id="svg_3"/>
    <path d="m345.74,105.87c0,0 -95.49,36.35 -95.49,77.85c0,41.54 25.93,55.03 30.11,68.51c4.14,13.52 -7.27,36.34 -7.27,36.34s37.36,-25.95 31.11,-56.06c-6.24,-30.11 -35.29,-39.47 -18.66,-69.54c11.11,-20.17 60.2,-57.1 60.2,-57.1z" fill="#7f7f7f" id="svg_4"/>
    <path d="m230.51,324.75c88.25,-3.15 120.43,-31 120.43,-31c-57.08,15.55 -208.65,14.54 -209.71,3.13c-1.02,-11.41 46.7,-20.77 46.7,-20.77s-74.72,0 -80.96,18.68c-6.23,18.68 35.36,33.04 123.54,29.96z" fill="#7f7f7f" id="svg_5"/>
    <path d="m358.19,368.49c0,0 86.37,-18.42 77.82,-65.33c-10.35,-57.12 -70.58,-24.94 -70.58,-24.94s42.61,0 46.73,25.93c4.16,25.95 -53.97,64.34 -53.97,64.34z" fill="#7f7f7f" id="svg_6"/>
    <path d="m315.63,343.6c0,0 -21.77,5.72 -54.01,9.34c-43.23,4.85 -95.5,1.01 -99.66,-6.26c-4.1,-7.26 7.27,-11.41 7.27,-11.41c-51.92,12.47 -23.51,34.24 37.34,38.42c52.15,3.56 129.79,-15.57 129.79,-15.57l-20.73,-14.52z" fill="#7f7f7f" id="svg_7"/>
    <path d="m181.74,388.94c0,0 -23.56,0.67 -24.94,13.14c-1.36,12.38 14.5,23.51 72.65,26.96c58.13,3.46 98.99,-15.89 98.99,-15.89l-26.3,-15.97c0,0 -16.63,3.5 -42.23,6.95c-25.63,3.47 -78.17,-2.78 -80.24,-7.59c-2.12,-4.86 2.07,-7.6 2.07,-7.6z" fill="#7f7f7f" id="svg_8"/>
    <path d="m407.99,445c9,-9.7 -2.78,-17.32 -2.78,-17.32s4.14,4.86 -1.34,10.38c-5.54,5.52 -56.08,19.35 -137.06,23.51c-80.95,4.16 -168.85,-7.61 -171.64,-17.99c-2.69,-10.37 45.02,-18.66 45.02,-18.66c-5.52,0.69 -71.96,2.07 -74.07,20.08c-2.07,17.97 29.05,32.51 153.67,32.51c124.55,-0.02 179.25,-22.86 188.2,-32.51z" fill="#7f7f7f" id="svg_9"/>
    <path d="m359.57,485.82c-54.68,11.04 -220.74,4.07 -220.74,4.07s107.92,25.63 231.11,4.19c58.89,-10.27 62.32,-38.76 62.32,-38.76s-18.01,19.39 -72.69,30.5z" fill="#7f7f7f" id="svg_10"/>
   </g>
   <g id="svg_11"/>
   <g id="svg_12"/>
   <g id="svg_13"/>
   <g id="svg_14"/>
   <g id="svg_15"/>
   <g id="svg_16"/>
   <g id="svg_17"/>
   <g id="svg_18"/>
   <g id="svg_19"/>
   <g id="svg_20"/>
   <g id="svg_21"/>
   <g id="svg_22"/>
   <g id="svg_23"/>
   <g id="svg_24"/>
   <g id="svg_25"/>
  </g>
 </g>
</svg>