<?xml version="1.0"?>
<svg width="24" height="24" xmlns="http://www.w3.org/2000/svg" xmlns:svg="http://www.w3.org/2000/svg">
 <title>MySQL</title>

 <g class="layer">
  <title>Layer 1</title>
  <path d="m16.41,5.5c-0.12,0 -0.2,0.02 -0.28,0.03l0,0.02l0.01,0c0.06,0.1 0.15,0.18 0.22,0.27c0.05,0.11 0.1,0.21 0.15,0.32l0.02,-0.01c0.09,-0.07 0.14,-0.18 0.14,-0.34c-0.04,-0.04 -0.05,-0.09 -0.08,-0.14c-0.04,-0.06 -0.13,-0.1 -0.18,-0.15zm-10.64,13.2l-0.93,0a50.85,50.85 0 0 0 -0.27,-4.41l0,0l-1.41,4.41l-0.71,0l-1.4,-4.41l-0.01,0a72.89,72.89 0 0 0 -0.19,4.41l-0.85,0c0.06,-1.97 0.19,-3.82 0.41,-5.54l1.15,0l1.34,4.07l0,0l1.35,-4.07l1.09,0c0.25,2.02 0.39,3.86 0.43,5.54zm4.02,-4.08c-0.38,2.04 -0.88,3.53 -1.5,4.45c-0.48,0.72 -1.01,1.08 -1.58,1.08c-0.15,0 -0.34,-0.05 -0.56,-0.14l0,-0.49c0.11,0.01 0.24,0.02 0.38,0.02c0.27,0 0.48,-0.07 0.65,-0.22c0.2,-0.18 0.29,-0.38 0.29,-0.61c0,-0.15 -0.07,-0.47 -0.23,-0.94l-1.01,-3.15l0.91,0l0.73,2.36c0.16,0.53 0.23,0.91 0.2,1.12c0.4,-1.07 0.68,-2.23 0.84,-3.48l0.88,0zm12.32,4.08l-2.63,0l0,-5.54l0.89,0l0,4.86l1.74,0l0,0.68zm-3.32,0.13l-1.01,-0.5c0.09,-0.08 0.17,-0.16 0.25,-0.25c0.43,-0.51 0.65,-1.26 0.65,-2.25c0,-1.83 -0.72,-2.75 -2.16,-2.75c-0.7,0 -1.25,0.23 -1.65,0.7c-0.43,0.51 -0.64,1.25 -0.64,2.24c0,0.98 0.19,1.69 0.57,2.14c0.35,0.41 0.88,0.62 1.58,0.62c0.27,0 0.51,-0.04 0.73,-0.1l1.32,0.77l0.36,-0.62zm-3.29,-1.24c-0.22,-0.36 -0.34,-0.94 -0.34,-1.74c0,-1.39 0.43,-2.09 1.27,-2.09c0.45,0 0.77,0.17 0.98,0.5c0.22,0.36 0.34,0.94 0.34,1.72c0,1.41 -0.43,2.11 -1.27,2.11c-0.45,0 -0.77,-0.16 -0.98,-0.5zm-1.66,-0.43c0,0.47 -0.17,0.86 -0.51,1.16c-0.35,0.3 -0.81,0.45 -1.39,0.45c-0.54,0 -1.06,-0.17 -1.57,-0.52l0.24,-0.47c0.43,0.22 0.83,0.33 1.19,0.33c0.33,0 0.59,-0.08 0.78,-0.22a0.75,0.75 0 0 0 0.3,-0.62c0,-0.33 -0.23,-0.61 -0.65,-0.84c-0.39,-0.22 -1.16,-0.66 -1.16,-0.66c-0.42,-0.31 -0.63,-0.64 -0.63,-1.18c0,-0.45 0.15,-0.81 0.47,-1.08c0.31,-0.28 0.72,-0.42 1.22,-0.42c0.51,0 0.98,0.14 1.4,0.41l-0.22,0.48a2.73,2.73 0 0 0 -1.06,-0.23c-0.28,0 -0.5,0.07 -0.65,0.2a0.68,0.68 0 0 0 -0.25,0.53c0,0.33 0.23,0.61 0.66,0.85c0.4,0.21 1.19,0.67 1.19,0.67c0.43,0.3 0.65,0.63 0.65,1.17l-0.01,-0.01zm9.38,-5.85c-0.53,-0.01 -0.95,0.04 -1.29,0.19c-0.1,0.04 -0.26,0.04 -0.28,0.17c0.06,0.05 0.07,0.14 0.11,0.21c0.08,0.13 0.22,0.31 0.35,0.41c0.14,0.11 0.28,0.21 0.43,0.31c0.26,0.16 0.55,0.25 0.81,0.41c0.14,0.1 0.29,0.22 0.44,0.32c0.07,0.05 0.12,0.14 0.21,0.17l0,-0.02c-0.05,-0.06 -0.06,-0.15 -0.11,-0.22c-0.06,-0.06 -0.13,-0.12 -0.2,-0.19a3.22,3.22 0 0 0 -0.69,-0.67c-0.21,-0.15 -0.68,-0.35 -0.77,-0.6l-0.01,-0.01c0.14,-0.02 0.32,-0.07 0.46,-0.11c0.22,-0.06 0.43,-0.05 0.67,-0.1c0.1,-0.03 0.21,-0.06 0.32,-0.1l0,-0.06c-0.12,-0.12 -0.21,-0.28 -0.34,-0.39a8.87,8.87 0 0 0 -1.1,-0.83c-0.21,-0.13 -0.48,-0.22 -0.7,-0.33c-0.08,-0.04 -0.21,-0.06 -0.26,-0.13c-0.12,-0.14 -0.19,-0.34 -0.27,-0.51a17.69,17.69 0 0 1 -0.55,-1.16c-0.12,-0.27 -0.19,-0.53 -0.34,-0.77c-0.69,-1.13 -1.44,-1.82 -2.59,-2.5c-0.24,-0.14 -0.54,-0.2 -0.85,-0.27c-0.17,-0.01 -0.34,-0.02 -0.5,-0.03c-0.11,-0.05 -0.22,-0.17 -0.31,-0.23c-0.38,-0.24 -1.37,-0.76 -1.65,-0.08c-0.18,0.44 0.27,0.87 0.43,1.09c0.11,0.15 0.26,0.32 0.34,0.5c0.04,0.11 0.06,0.23 0.1,0.35c0.11,0.3 0.21,0.62 0.35,0.9c0.07,0.14 0.15,0.29 0.25,0.41c0.05,0.08 0.14,0.11 0.16,0.23c-0.09,0.14 -0.1,0.33 -0.15,0.5c-0.24,0.76 -0.15,1.69 0.19,2.25c0.11,0.17 0.37,0.53 0.71,0.39c0.3,-0.12 0.23,-0.5 0.32,-0.83c0.02,-0.08 0,-0.14 0.04,-0.19l0,0.02c0.1,0.18 0.19,0.36 0.28,0.55c0.2,0.33 0.56,0.67 0.87,0.9c0.16,0.12 0.28,0.32 0.48,0.4l0,-0.02l-0.01,0c-0.05,-0.06 -0.1,-0.09 -0.16,-0.14a3.44,3.44 0 0 1 -0.35,-0.4a8.76,8.76 0 0 1 -0.74,-1.21c-0.11,-0.21 -0.21,-0.44 -0.29,-0.65c-0.04,-0.08 -0.04,-0.2 -0.11,-0.24c-0.1,0.15 -0.25,0.28 -0.32,0.46c-0.13,0.28 -0.14,0.64 -0.19,1.01c-0.03,0 -0.01,0 -0.03,0.01c-0.21,-0.05 -0.28,-0.27 -0.36,-0.46c-0.2,-0.47 -0.24,-1.24 -0.06,-1.78c0.04,-0.14 0.24,-0.59 0.16,-0.72c-0.04,-0.13 -0.17,-0.2 -0.24,-0.3a2.48,2.48 0 0 1 -0.24,-0.43c-0.16,-0.37 -0.24,-0.79 -0.42,-1.16c-0.08,-0.18 -0.22,-0.36 -0.33,-0.52c-0.13,-0.18 -0.27,-0.3 -0.37,-0.52c-0.03,-0.07 -0.08,-0.19 -0.03,-0.27c0.02,-0.05 0.05,-0.07 0.1,-0.09c0.09,-0.07 0.33,0.02 0.42,0.06c0.25,0.1 0.46,0.2 0.66,0.34c0.1,0.06 0.2,0.19 0.32,0.22l0.14,0c0.21,0.05 0.45,0.02 0.65,0.08c0.36,0.11 0.68,0.28 0.96,0.46a5.95,5.95 0 0 1 2.09,2.28c0.08,0.16 0.11,0.3 0.19,0.46c0.14,0.33 0.31,0.66 0.45,0.98c0.14,0.31 0.28,0.63 0.48,0.9c0.1,0.14 0.5,0.21 0.68,0.28c0.13,0.06 0.34,0.12 0.46,0.19c0.23,0.14 0.45,0.3 0.67,0.45c0.11,0.08 0.44,0.25 0.46,0.38z" fill="#7f7f7f" id="svg_1"/>
 </g>
</svg>